<?xml version="1.0" standalone="no"?>
<!DOCTYPE svg PUBLIC "-//W3C//DTD SVG 20010904//EN"
 "http://www.w3.org/TR/2001/REC-SVG-20010904/DTD/svg10.dtd">
<svg version="1.0" xmlns="http://www.w3.org/2000/svg"
 width="1109.000000pt" height="1109.000000pt" viewBox="0 0 1109.000000 1109.000000"
 preserveAspectRatio="xMidYMid meet">
<metadata>
Created by potrace 1.11, written by Peter Selinger 2001-2013
</metadata>
<g transform="translate(0.000000,1109.000000) scale(0.100000,-0.100000)"
fill="#000000" stroke="none">
<path d="M5611 10873 c-13 -104 -24 -199 -26 -213 -2 -14 -6 -43 -9 -65 -3
-22 -8 -62 -11 -90 -4 -27 -8 -62 -10 -76 -2 -15 -7 -55 -10 -90 -3 -35 -8
-71 -10 -79 -2 -8 -7 -44 -10 -80 -4 -36 -8 -76 -10 -90 -2 -14 -7 -50 -10
-80 -3 -30 -8 -66 -10 -80 -2 -14 -7 -45 -9 -70 -12 -103 -16 -137 -21 -175
-7 -47 -13 -94 -20 -152 -3 -24 -7 -62 -10 -85 -10 -79 -16 -123 -20 -148 -2
-14 -7 -45 -10 -70 -7 -55 -14 -97 -20 -130 -3 -14 -7 -41 -10 -60 -3 -19 -7
-46 -10 -60 -2 -14 -7 -43 -10 -65 -3 -23 -8 -52 -10 -65 -3 -14 -7 -38 -10
-55 -3 -16 -7 -41 -10 -55 -3 -14 -7 -41 -10 -60 -3 -19 -12 -66 -20 -105 -17
-87 -23 -117 -35 -180 -20 -102 -39 -192 -59 -275 -20 -85 -33 -145 -32 -155
0 -2 -5 -19 -10 -37 -6 -18 -12 -40 -13 -48 -132 -582 -369 -1275 -571 -1670
-103 -203 -109 -211 -135 -206 -14 2 -52 9 -85 15 -132 23 -174 30 -220 36
-16 2 -57 8 -90 14 -60 11 -79 13 -255 28 -120 10 -445 10 -530 0 -162 -19
-269 -47 -380 -101 -283 -137 -376 -443 -205 -675 112 -152 295 -250 525 -280
152 -20 397 4 545 54 140 47 316 163 454 297 74 72 211 231 231 267 10 19 17
18 217 -34 226 -58 761 -210 769 -218 3 -3 7 -364 9 -803 5 -1071 16 -3339 19
-4011 1 -298 5 -545 9 -549 4 -4 7 10 8 32 0 21 2 46 4 55 1 8 6 42 9 75 4 32
9 70 11 84 2 14 6 45 9 70 6 51 14 119 21 170 2 19 11 94 20 165 26 214 28
231 40 323 2 20 9 75 15 122 5 47 12 94 14 105 2 11 7 52 10 90 4 39 9 81 11
95 3 14 7 50 10 80 6 53 12 98 20 148 2 13 7 53 11 90 3 37 8 70 10 73 1 3 6
28 9 55 4 27 11 78 17 114 6 36 12 78 14 94 7 51 34 209 44 256 5 25 12 61 14
80 3 19 16 91 30 160 14 69 27 136 30 150 15 83 83 384 126 555 28 110 52 209
55 220 3 11 30 106 60 210 31 105 57 197 59 205 23 94 167 489 246 675 47 111
213 450 234 478 13 16 24 15 217 -17 112 -19 231 -37 264 -41 33 -4 74 -8 90
-10 164 -20 493 -27 633 -13 434 45 688 247 677 539 -9 232 -206 429 -500 500
-142 35 -364 32 -545 -5 -254 -53 -532 -252 -750 -537 -63 -82 -35 -79 -231
-30 -134 33 -512 139 -781 218 -10 3 -18 10 -19 17 -2 21 -7 940 -14 2351 -10
2298 -14 3007 -18 3011 -2 2 -14 -80 -26 -183z m-181 -3284 c-1 -511 -6 -1537
-9 -1788 -1 -37 -4 -42 -18 -36 -67 25 -495 138 -669 176 -54 11 -100 22 -102
24 -2 2 15 35 37 74 141 249 320 679 462 1111 32 98 127 413 134 444 2 12 24
95 49 186 24 91 59 231 78 312 18 80 34 145 36 144 1 -2 2 -293 2 -647z m2515
-1723 c155 -42 282 -133 329 -236 79 -169 -32 -316 -279 -374 -88 -20 -419
-15 -560 9 -22 3 -53 8 -70 10 -28 4 -53 8 -135 20 -19 3 -57 10 -85 15 -48 9
-73 14 -140 25 -54 10 -180 38 -184 41 -14 12 183 222 279 298 136 108 275
173 430 202 91 16 339 10 415 -10z m-4489 -20 c56 -4 111 -9 122 -11 11 -2 49
-6 84 -10 35 -3 83 -11 107 -16 24 -5 46 -8 48 -5 2 2 28 -2 56 -9 29 -8 70
-16 92 -19 52 -6 299 -57 304 -62 7 -6 -97 -125 -186 -211 -169 -164 -358
-265 -541 -290 -74 -10 -284 -10 -343 0 -279 45 -469 255 -394 433 44 105 190
183 375 202 81 8 121 7 276 -2z m2369 -562 c67 -19 131 -36 141 -38 10 -3 82
-20 159 -40 77 -20 152 -39 167 -41 15 -3 37 -9 50 -14 13 -5 26 -9 31 -9 4 0
25 -3 46 -7 l39 -6 -97 -192 c-53 -106 -109 -219 -123 -252 -135 -306 -282
-722 -393 -1112 -20 -70 -42 -148 -50 -173 -7 -25 -39 -154 -71 -287 -33 -134
-61 -243 -64 -243 -3 0 -5 289 -3 643 3 711 10 1810 12 1816 1 2 9 0 18 -3 9
-4 72 -23 138 -42z"/>
</g>
</svg>
